<svg width="35" height="56" viewBox="0 0 35 56" fill="none" xmlns="http://www.w3.org/2000/svg">
<path d="M31.0881 28.5908L27.6032 25.7605V27.9588C27.6032 33.9217 26.7458 38.5656 24.8926 41.9455C23.0948 45.2979 20.5503 46.9741 17.2312 46.9741C13.7463 46.9741 11.2017 45.2705 9.43155 41.9455C7.68906 38.5656 6.83165 33.9217 6.83165 27.9588C6.83165 21.9959 7.68906 17.2695 9.43155 13.9721C11.174 10.6197 13.7186 8.97094 17.2312 8.97094C20.7439 8.97094 23.1778 10.6197 24.948 13.9721C25.5564 15.0163 25.999 16.2528 26.4415 17.5993C27.4649 21.199 30.6456 23.782 34.4072 23.782C34.1582 19.9899 33.4668 16.5001 32.4434 13.5049C31.0052 9.43808 28.9861 6.27802 26.4415 4.07971C23.8416 1.82645 20.7715 0.727295 17.2589 0.727295C13.7463 0.727295 10.5655 1.82645 8.02096 4.07971C5.42106 6.27802 3.42965 9.43808 2.07439 13.5049C0.663804 17.5718 0 22.3806 0 27.9588C0 33.537 0.691461 38.2634 2.1297 42.3852C3.48497 46.452 5.50404 49.6121 8.04862 51.8929C10.5932 54.1461 13.7186 55.2728 17.2866 55.2728C20.8545 55.2728 23.8969 54.1186 26.4692 51.8929C29.0138 49.6121 31.0328 46.452 32.4711 42.3852C33.8817 38.2908 34.5455 33.4546 34.5455 27.8764V25.6781L31.1435 28.5908H31.0881ZM29.484 31.009C29.0967 31.009 28.7648 30.6792 28.7648 30.2945H30.2031C30.2031 30.6792 29.8712 31.009 29.484 31.009ZM32.6647 31.009C32.2775 31.009 31.9456 30.6792 31.9456 30.2945H33.4391C33.4391 30.6792 33.1072 31.009 32.6647 31.009Z" fill="#F6EEEE"/>
</svg>
